<svg xmlns="http://www.w3.org/2000/svg" width="18" height="18" viewBox="0 0 18 18">
  <defs>
    <linearGradient id="b83ff0b9-031b-4877-b930-837a2e2166ac" x1="7.941" y1="4.214" x2="7.941" y2="6.45" gradientUnits="userSpaceOnUse">
      <stop offset="0" stop-color="#c69aeb" />
      <stop offset="1" stop-color="#6f4bb2" />
    </linearGradient>
    <linearGradient id="e8350d41-01d0-4f76-901c-5b9a280c36af" x1="9" x2="9" y2="18" gradientUnits="userSpaceOnUse">
      <stop offset="0" stop-color="#50e6ff" />
      <stop offset="1" stop-color="#32bedd" />
    </linearGradient>
  </defs>
  <path d="M7.922,5.992h-1.9A1.126,1.126,0,0,1,4.894,4.867V0h1.05V4.867a.075.075,0,0,0,.075.075h1.9ZM12.079,0V4.867A.075.075,0,0,1,12,4.942h-.86v-.02A2.81,2.81,0,0,0,8.37,2.643a.459.459,0,0,0-.114.911.543.543,0,0,0,.114,0,1.9,1.9,0,0,1,0,3.791.459.459,0,0,0-.114.91.435.435,0,0,0,.114,0,2.806,2.806,0,0,0,2.748-2.263H12a1.126,1.126,0,0,0,1.125-1.125V0Z" fill="#32bedd" />
  <rect x="6.823" y="4.328" width="2.236" height="2.236" rx="1.104" fill="url(#b83ff0b9-031b-4877-b930-837a2e2166ac)" />
  <rect x="5.141" y="10.444" width="7.803" height="1.047" rx="0.47" fill="#32bedd" />
  <rect x="5.141" y="12.319" width="7.803" height="1.047" rx="0.47" fill="#32bedd" />
  <rect x="5.141" y="14.195" width="4.918" height="1.047" rx="0.47" fill="#32bedd" />
  <path d="M15.351,1V17H2.649V1h12.7m.4-1H2.249a.6.6,0,0,0-.6.6V17.4a.6.6,0,0,0,.6.6h13.5a.6.6,0,0,0,.6-.6V.6a.6.6,0,0,0-.6-.6Z" fill="url(#e8350d41-01d0-4f76-901c-5b9a280c36af)" />
</svg>