<svg xmlns="http://www.w3.org/2000/svg" width="18" height="18" viewBox="0 0 18 18">
  <defs>
    <linearGradient id="a568e7dc-d7c2-4acb-b36c-b20f7c24fbdb" x1="6.131" y1="8.66" x2="6.131" y2="3.547" gradientUnits="userSpaceOnUse">
      <stop offset="0" stop-color="#32bedd" />
      <stop offset="1" stop-color="#50e6ff" />
    </linearGradient>
    <linearGradient id="fca320a9-78c2-4479-b930-1470aa8f64ff" x1="11.869" y1="14.453" x2="11.869" y2="9.34" gradientUnits="userSpaceOnUse">
      <stop offset="0" stop-color="#32bedd" />
      <stop offset="1" stop-color="#50e6ff" />
    </linearGradient>
    <linearGradient id="ac215dce-f0be-44a9-afa5-14b7a551b3d2" x1="11.869" y1="8.66" x2="11.869" y2="3.547" gradientUnits="userSpaceOnUse">
      <stop offset="0" stop-color="#773adc" />
      <stop offset="1" stop-color="#a67af4" />
    </linearGradient>
    <linearGradient id="be36613b-2e9a-4068-9c84-81fe3d611218" x1="6.131" y1="14.441" x2="6.131" y2="9.327" gradientUnits="userSpaceOnUse">
      <stop offset="0" stop-color="#773adc" />
      <stop offset="1" stop-color="#a67af4" />
    </linearGradient>
  </defs>
  <g id="ffe43a05-fed1-486e-beb7-cb946058bc7b">
    <polygon points="16.429 14.489 16.429 3.484 9 0 1.571 3.484 1.571 14.489 9 18 16.429 14.489" fill="#552f99" />
    <rect x="3.574" y="3.547" width="5.113" height="5.113" rx="0.339" fill="url(#a568e7dc-d7c2-4acb-b36c-b20f7c24fbdb)" />
    <rect x="9.312" y="9.34" width="5.113" height="5.113" rx="0.339" fill="url(#fca320a9-78c2-4479-b930-1470aa8f64ff)" />
    <path d="M8.149,8.212H4.113a.09.09,0,0,1-.091-.09V4.086A.091.091,0,0,1,4.113,4H8.149a.091.091,0,0,1,.091.091V8.122A.09.09,0,0,1,8.149,8.212Zm5.829,5.7V9.878a.09.09,0,0,0-.091-.09H9.851a.09.09,0,0,0-.091.09v4.036a.091.091,0,0,0,.091.091h4.036A.091.091,0,0,0,13.978,13.914Z" fill="#32bedd" />
    <path d="M5.674,7.83H4.612V4.377H5.674ZM7.65,4.377H6.588V7.83H7.65Zm3.762,5.793H10.35v3.453h1.062Zm1.976,0H12.326v3.453h1.062Z" fill="#c3f1ff" />
    <rect x="9.312" y="3.547" width="5.113" height="5.113" rx="0.339" fill="url(#ac215dce-f0be-44a9-afa5-14b7a551b3d2)" />
    <rect x="3.574" y="9.327" width="5.113" height="5.113" rx="0.339" fill="url(#be36613b-2e9a-4068-9c84-81fe3d611218)" />
    <path d="M13.887,8.212H9.851a.09.09,0,0,1-.091-.09V4.086A.091.091,0,0,1,9.851,4h4.036a.091.091,0,0,1,.091.091V8.122A.09.09,0,0,1,13.887,8.212ZM8.24,13.9V9.866a.091.091,0,0,0-.091-.091H4.113a.091.091,0,0,0-.091.091V13.9a.091.091,0,0,0,.091.091H8.149A.091.091,0,0,0,8.24,13.9Z" fill="#773adc" />
    <path d="M11.412,7.83H10.35V4.377h1.062Zm1.976-3.453H12.326V7.83h1.062Zm-7.714,5.78H4.612V13.61H5.674Zm1.976,0H6.588V13.61H7.65Z" fill="#b796f9" />
  </g>
  <metadata>
    <rdf:RDF xmlns:rdf="http://www.w3.org/1999/02/22-rdf-syntax-ns#">
      <rdf:li>public:true</rdf:li>
      <rdf:li>sdk:false</rdf:li>
      <rdf:li>category:Compute</rdf:li>
    </rdf:RDF>
  </metadata>
</svg>