<svg width="35" height="35" viewBox="0 0 35 35" fill="none" xmlns="http://www.w3.org/2000/svg">
<g clip-path="url(#clip0_4804_1259)">
<path d="M23.03 24.8713C22.4156 24.7138 21.7836 24.7294 21.1886 24.9005L18.6706 20.7705C18.5928 20.6441 18.4295 20.6013 18.3011 20.6752L17.2589 21.2761C17.1267 21.3519 17.082 21.5249 17.1617 21.6552L19.6817 25.7911C18.3847 27.0899 18.2486 29.2852 19.7011 30.7513C19.9345 30.9866 20.2047 31.1849 20.4983 31.3386C21.035 31.6166 21.6028 31.7527 22.1647 31.7527C23.065 31.7527 23.9458 31.4027 24.64 30.728C24.8831 30.4927 25.0872 30.2166 25.2428 29.9172C25.83 28.7913 25.7872 27.5197 25.1708 26.4774C24.6945 25.6744 23.9361 25.1027 23.03 24.8713ZM23.8545 28.6922C23.7378 29.1433 23.452 29.5244 23.0495 29.7616C22.647 29.9988 22.1764 30.0649 21.7233 29.9502C21.1828 29.8122 20.7453 29.4311 20.5295 28.8983C20.2553 28.2197 20.4497 27.4166 21.0058 26.9402C21.3383 26.6544 21.7428 26.5086 22.157 26.5086C22.3028 26.5086 22.4506 26.5261 22.5945 26.5649C23.0475 26.6816 23.4267 26.9655 23.6658 27.368C23.9031 27.7705 23.9711 28.2391 23.8545 28.6922ZM30.767 10.3308C28.7992 10.3308 27.1445 11.6822 26.672 13.5022H21.7331C21.5814 13.5022 21.4589 13.6247 21.4589 13.7763V15.3436C21.4589 15.4952 21.5814 15.6177 21.7331 15.6177H26.672C27.1445 17.4397 28.7972 18.7891 30.767 18.7891C33.1022 18.7891 35 16.8913 35 14.5599C35 12.2286 33.1003 10.3308 30.767 10.3308ZM32.8436 14.9741C32.6842 15.8063 32.0133 16.4752 31.1831 16.6347C29.6936 16.9186 28.4064 15.6333 28.6903 14.1458C28.8497 13.3136 29.5186 12.6447 30.3508 12.4852C31.8403 12.1994 33.1275 13.4866 32.8436 14.9741ZM5.79056 5.74189C6.02584 5.80022 6.26501 5.82939 6.50223 5.82939C6.78223 5.82939 7.05834 5.78661 7.32473 5.70689L9.04362 8.5205C9.1214 8.64689 9.28473 8.68966 9.41306 8.61578L10.2025 8.16078C10.3347 8.08494 10.3795 7.91189 10.2997 7.78161L8.57501 4.95633C9.48501 4.03272 9.69695 2.57633 8.9989 1.4155C8.59834 0.748552 7.96056 0.277997 7.20418 0.0893856C6.3389 -0.126448 5.43668 0.0582745 4.71529 0.608552C3.65168 1.41939 3.28223 2.903 3.84029 4.11827C4.21945 4.94272 4.92723 5.528 5.79251 5.74189H5.79056ZM5.62918 1.74411C5.88779 1.5555 6.18918 1.45633 6.49445 1.45633C6.61306 1.45633 6.73168 1.47189 6.85029 1.50105C7.3014 1.61383 7.66695 1.92689 7.84973 2.36827C8.10251 2.98077 7.88862 3.71189 7.34806 4.09689C6.99418 4.34966 6.56056 4.43133 6.14445 4.32633C5.69334 4.21355 5.32779 3.9005 5.14501 3.45911C4.89418 2.85244 5.10029 2.133 5.62918 1.74411ZM10.9122 21.3694L9.30223 20.4419C9.17195 20.3661 9.00279 20.4108 8.9289 20.543L6.06473 25.5538C3.6789 24.918 1.03445 26.1858 0.213897 28.7972C0.0369529 29.3591 -0.0291582 29.9541 0.0194529 30.5413C0.157508 32.1922 1.06362 33.5922 2.45584 34.3777C3.1889 34.7899 3.99779 35.0019 4.8164 35.0019C5.54362 35.0019 6.27862 34.8347 6.97279 34.4983C7.53473 34.2261 8.04029 33.8372 8.44668 33.3647C9.53556 32.0969 9.8914 30.4538 9.46168 28.9061C9.22834 28.0661 8.77723 27.3252 8.16279 26.7361L11.0172 21.7447C11.0911 21.6144 11.0464 21.4472 10.9161 21.3713L10.9122 21.3694ZM6.9164 31.3736L6.50223 31.8286C6.18918 32.1727 5.78862 32.4411 5.33362 32.5402C4.75418 32.6666 4.15723 32.5791 3.63612 32.2855C3.07612 31.9705 2.67362 31.4552 2.50056 30.8369C2.32751 30.2186 2.40723 29.5691 2.72418 29.0111C3.16556 28.2294 3.98418 27.7899 4.82418 27.7899C5.22473 27.7899 5.63112 27.8891 6.00251 28.1011C6.56251 28.416 6.96501 28.9313 7.13806 29.5497C7.31112 30.168 7.2314 30.8174 6.91445 31.3755L6.9164 31.3736Z" fill="url(#paint0_linear_4804_1259)"/>
<path d="M19.2909 10.2803L15.0675 7.84395C14.4084 7.46478 13.5956 7.46478 12.9364 7.84395L8.71308 10.2803C8.05391 10.6614 7.64752 11.3634 7.64752 12.1237V16.9945C7.64752 17.7548 8.05391 18.4587 8.71308 18.8398L12.9403 21.2762C13.5995 21.6553 14.4122 21.6553 15.0714 21.2762L19.2986 18.8398C19.9578 18.4587 20.3642 17.7567 20.3642 16.9945V12.1237C20.3622 11.3614 19.952 10.6576 19.2909 10.2803Z" fill="url(#paint1_linear_4804_1259)"/>
</g>
<defs>
<linearGradient id="paint0_linear_4804_1259" x1="17.5" y1="34.9999" x2="17.5" y2="-5.80548e-05" gradientUnits="userSpaceOnUse">
<stop stop-color="#198AB3"/>
<stop offset="1" stop-color="#32BEDD"/>
</linearGradient>
<linearGradient id="paint1_linear_4804_1259" x1="14.0059" y1="21.562" x2="14.0059" y2="7.56006" gradientUnits="userSpaceOnUse">
<stop stop-color="#6F4BB2"/>
<stop offset="1" stop-color="#C69AEB"/>
</linearGradient>
<clipPath id="clip0_4804_1259">
<rect width="35" height="35" fill="white"/>
</clipPath>
</defs>
</svg>
